<mxfile host="app.diagrams.net" modified="2023-09-22T00:32:02.916Z" agent="Mozilla/5.0 (Macintosh; Intel Mac OS X 10_15_7) AppleWebKit/605.1.15 (KHTML, like Gecko) Version/16.6 Safari/605.1.15" etag="7YL3cEJZZHW8pbDbpFiT" version="21.8.0" type="github">
  <diagram name="Page-1" id="hHoQwFloUAMHd9b8XSfH">
    <mxGraphModel dx="785" dy="1573" grid="1" gridSize="10" guides="1" tooltips="1" connect="1" arrows="1" fold="1" page="1" pageScale="1" pageWidth="850" pageHeight="1100" math="0" shadow="0">
      <root>
        <mxCell id="0" />
        <mxCell id="1" parent="0" />
        <mxCell id="bgF9OY12VIYj5gz-CZeS-50" style="edgeStyle=orthogonalEdgeStyle;rounded=0;orthogonalLoop=1;jettySize=auto;html=1;entryX=0;entryY=0.5;entryDx=0;entryDy=0;endArrow=none;endFill=0;" edge="1" parent="1" source="bgF9OY12VIYj5gz-CZeS-1" target="bgF9OY12VIYj5gz-CZeS-15">
          <mxGeometry relative="1" as="geometry" />
        </mxCell>
        <mxCell id="bgF9OY12VIYj5gz-CZeS-1" value="Test Lab" style="shape=umlActor;verticalLabelPosition=bottom;verticalAlign=top;html=1;outlineConnect=0;" vertex="1" parent="1">
          <mxGeometry x="140" y="-60" width="30" height="60" as="geometry" />
        </mxCell>
        <mxCell id="bgF9OY12VIYj5gz-CZeS-3" value="issue a DID" style="ellipse;whiteSpace=wrap;html=1;" vertex="1" parent="1">
          <mxGeometry x="312.5" y="20" width="100" height="70" as="geometry" />
        </mxCell>
        <mxCell id="bgF9OY12VIYj5gz-CZeS-47" style="edgeStyle=orthogonalEdgeStyle;rounded=0;orthogonalLoop=1;jettySize=auto;html=1;entryX=1;entryY=0.5;entryDx=0;entryDy=0;endArrow=none;endFill=0;" edge="1" parent="1" source="bgF9OY12VIYj5gz-CZeS-6" target="bgF9OY12VIYj5gz-CZeS-46">
          <mxGeometry relative="1" as="geometry" />
        </mxCell>
        <object label="Traveler" id="bgF9OY12VIYj5gz-CZeS-6">
          <mxCell style="shape=umlActor;verticalLabelPosition=bottom;verticalAlign=top;html=1;outlineConnect=0;" vertex="1" parent="1">
            <mxGeometry x="850" y="25" width="30" height="60" as="geometry" />
          </mxCell>
        </object>
        <mxCell id="bgF9OY12VIYj5gz-CZeS-39" style="edgeStyle=orthogonalEdgeStyle;rounded=0;orthogonalLoop=1;jettySize=auto;html=1;entryX=1;entryY=0.5;entryDx=0;entryDy=0;dashed=1;" edge="1" parent="1" source="bgF9OY12VIYj5gz-CZeS-14" target="bgF9OY12VIYj5gz-CZeS-28">
          <mxGeometry relative="1" as="geometry">
            <Array as="points">
              <mxPoint x="450" y="390" />
            </Array>
          </mxGeometry>
        </mxCell>
        <mxCell id="bgF9OY12VIYj5gz-CZeS-40" value="&amp;lt;&amp;lt;Prevents&amp;gt;&amp;gt;" style="edgeLabel;html=1;align=center;verticalAlign=middle;resizable=0;points=[];" vertex="1" connectable="0" parent="bgF9OY12VIYj5gz-CZeS-39">
          <mxGeometry x="-0.3297" y="1" relative="1" as="geometry">
            <mxPoint as="offset" />
          </mxGeometry>
        </mxCell>
        <mxCell id="bgF9OY12VIYj5gz-CZeS-51" style="edgeStyle=orthogonalEdgeStyle;rounded=0;orthogonalLoop=1;jettySize=auto;html=1;dashed=1;exitX=1;exitY=0.5;exitDx=0;exitDy=0;entryX=0.5;entryY=0;entryDx=0;entryDy=0;" edge="1" parent="1" source="bgF9OY12VIYj5gz-CZeS-14" target="bgF9OY12VIYj5gz-CZeS-46">
          <mxGeometry relative="1" as="geometry">
            <mxPoint x="630" y="230" as="targetPoint" />
            <Array as="points">
              <mxPoint x="523" y="200" />
              <mxPoint x="590" y="200" />
              <mxPoint x="590" y="145" />
              <mxPoint x="700" y="145" />
            </Array>
          </mxGeometry>
        </mxCell>
        <mxCell id="bgF9OY12VIYj5gz-CZeS-52" value="&amp;lt;&amp;lt;Issues&amp;gt;&amp;gt;" style="edgeLabel;html=1;align=center;verticalAlign=middle;resizable=0;points=[];" vertex="1" connectable="0" parent="bgF9OY12VIYj5gz-CZeS-51">
          <mxGeometry x="0.28" y="1" relative="1" as="geometry">
            <mxPoint as="offset" />
          </mxGeometry>
        </mxCell>
        <mxCell id="bgF9OY12VIYj5gz-CZeS-14" value="Writing credentials &amp;nbsp;cryptographically" style="ellipse;whiteSpace=wrap;html=1;" vertex="1" parent="1">
          <mxGeometry x="412.5" y="170" width="110" height="70" as="geometry" />
        </mxCell>
        <mxCell id="bgF9OY12VIYj5gz-CZeS-15" value="Get the lab test credential" style="ellipse;whiteSpace=wrap;html=1;" vertex="1" parent="1">
          <mxGeometry x="190" y="190" width="120" height="80" as="geometry" />
        </mxCell>
        <mxCell id="bgF9OY12VIYj5gz-CZeS-17" value="Receives test results" style="ellipse;whiteSpace=wrap;html=1;" vertex="1" parent="1">
          <mxGeometry x="560" y="-50" width="90" height="60" as="geometry" />
        </mxCell>
        <mxCell id="bgF9OY12VIYj5gz-CZeS-22" value="&lt;font color=&quot;#00091c&quot;&gt;Rogue User&lt;/font&gt;" style="shape=umlActor;verticalLabelPosition=bottom;verticalAlign=top;html=1;outlineConnect=0;fillColor=#00091C;fontColor=#ffffff;strokeColor=#001db7;" vertex="1" parent="1">
          <mxGeometry x="100" y="360" width="30" height="60" as="geometry" />
        </mxCell>
        <mxCell id="bgF9OY12VIYj5gz-CZeS-24" value="" style="edgeStyle=orthogonalEdgeStyle;rounded=0;orthogonalLoop=1;jettySize=auto;html=1;entryX=0.025;entryY=0.425;entryDx=0;entryDy=0;entryPerimeter=0;endArrow=none;endFill=0;" edge="1" parent="1" source="bgF9OY12VIYj5gz-CZeS-22" target="bgF9OY12VIYj5gz-CZeS-28">
          <mxGeometry relative="1" as="geometry">
            <mxPoint x="260" y="460" as="targetPoint" />
            <Array as="points">
              <mxPoint x="180" y="385" />
              <mxPoint x="180" y="385" />
            </Array>
          </mxGeometry>
        </mxCell>
        <mxCell id="bgF9OY12VIYj5gz-CZeS-27" style="edgeStyle=orthogonalEdgeStyle;rounded=0;orthogonalLoop=1;jettySize=auto;html=1;entryX=0.5;entryY=0;entryDx=0;entryDy=0;dashed=1;" edge="1" parent="1" source="bgF9OY12VIYj5gz-CZeS-3" target="bgF9OY12VIYj5gz-CZeS-14">
          <mxGeometry relative="1" as="geometry">
            <Array as="points">
              <mxPoint x="470" y="55" />
              <mxPoint x="470" y="160" />
              <mxPoint x="468" y="160" />
            </Array>
          </mxGeometry>
        </mxCell>
        <mxCell id="bgF9OY12VIYj5gz-CZeS-36" value="&amp;lt;&amp;lt;Includes&amp;gt;&amp;gt;" style="edgeLabel;html=1;align=center;verticalAlign=middle;resizable=0;points=[];" vertex="1" connectable="0" parent="bgF9OY12VIYj5gz-CZeS-27">
          <mxGeometry x="-0.1518" y="3" relative="1" as="geometry">
            <mxPoint as="offset" />
          </mxGeometry>
        </mxCell>
        <mxCell id="bgF9OY12VIYj5gz-CZeS-72" style="edgeStyle=orthogonalEdgeStyle;rounded=0;orthogonalLoop=1;jettySize=auto;html=1;entryX=0.5;entryY=1;entryDx=0;entryDy=0;dashed=1;" edge="1" parent="1" source="bgF9OY12VIYj5gz-CZeS-28" target="bgF9OY12VIYj5gz-CZeS-46">
          <mxGeometry relative="1" as="geometry">
            <mxPoint x="700" y="280" as="targetPoint" />
            <Array as="points">
              <mxPoint x="363" y="430" />
              <mxPoint x="701" y="430" />
              <mxPoint x="701" y="270" />
              <mxPoint x="700" y="270" />
            </Array>
          </mxGeometry>
        </mxCell>
        <mxCell id="bgF9OY12VIYj5gz-CZeS-73" value="&amp;lt;&amp;lt;Threatens&amp;gt;&amp;gt;" style="edgeLabel;html=1;align=center;verticalAlign=middle;resizable=0;points=[];" vertex="1" connectable="0" parent="bgF9OY12VIYj5gz-CZeS-72">
          <mxGeometry x="-0.0186" y="1" relative="1" as="geometry">
            <mxPoint as="offset" />
          </mxGeometry>
        </mxCell>
        <mxCell id="bgF9OY12VIYj5gz-CZeS-28" value="&lt;font color=&quot;#ffffff&quot;&gt;Hacks the credentials&lt;/font&gt;" style="ellipse;whiteSpace=wrap;html=1;fillColor=#000000;" vertex="1" parent="1">
          <mxGeometry x="305" y="355" width="115" height="70" as="geometry" />
        </mxCell>
        <mxCell id="bgF9OY12VIYj5gz-CZeS-29" style="edgeStyle=orthogonalEdgeStyle;rounded=0;orthogonalLoop=1;jettySize=auto;html=1;entryX=0.45;entryY=0.975;entryDx=0;entryDy=0;entryPerimeter=0;dashed=1;" edge="1" parent="1" source="bgF9OY12VIYj5gz-CZeS-28" target="bgF9OY12VIYj5gz-CZeS-15">
          <mxGeometry relative="1" as="geometry" />
        </mxCell>
        <mxCell id="bgF9OY12VIYj5gz-CZeS-31" value="&amp;lt;&amp;lt;Threatens&amp;gt;&amp;gt;" style="edgeLabel;html=1;align=center;verticalAlign=middle;resizable=0;points=[];" vertex="1" connectable="0" parent="bgF9OY12VIYj5gz-CZeS-29">
          <mxGeometry x="-0.1336" y="-2" relative="1" as="geometry">
            <mxPoint x="1" as="offset" />
          </mxGeometry>
        </mxCell>
        <mxCell id="bgF9OY12VIYj5gz-CZeS-46" value="Receive the credentials" style="ellipse;whiteSpace=wrap;html=1;" vertex="1" parent="1">
          <mxGeometry x="640" y="195" width="120" height="70" as="geometry" />
        </mxCell>
        <mxCell id="bgF9OY12VIYj5gz-CZeS-59" style="edgeStyle=orthogonalEdgeStyle;rounded=0;orthogonalLoop=1;jettySize=auto;html=1;entryX=0;entryY=0.433;entryDx=0;entryDy=0;entryPerimeter=0;endArrow=none;endFill=0;" edge="1" parent="1" source="bgF9OY12VIYj5gz-CZeS-1" target="bgF9OY12VIYj5gz-CZeS-3">
          <mxGeometry relative="1" as="geometry" />
        </mxCell>
        <mxCell id="bgF9OY12VIYj5gz-CZeS-62" style="edgeStyle=orthogonalEdgeStyle;rounded=0;orthogonalLoop=1;jettySize=auto;html=1;exitX=1;exitY=0.5;exitDx=0;exitDy=0;dashed=1;" edge="1" parent="1" source="bgF9OY12VIYj5gz-CZeS-60" target="bgF9OY12VIYj5gz-CZeS-17">
          <mxGeometry relative="1" as="geometry" />
        </mxCell>
        <mxCell id="bgF9OY12VIYj5gz-CZeS-63" value="&amp;lt;&amp;lt;Includes&amp;gt;&amp;gt;" style="edgeLabel;html=1;align=center;verticalAlign=middle;resizable=0;points=[];" vertex="1" connectable="0" parent="bgF9OY12VIYj5gz-CZeS-62">
          <mxGeometry x="-0.1667" y="-1" relative="1" as="geometry">
            <mxPoint as="offset" />
          </mxGeometry>
        </mxCell>
        <mxCell id="bgF9OY12VIYj5gz-CZeS-60" value="Send test results" style="ellipse;whiteSpace=wrap;html=1;" vertex="1" parent="1">
          <mxGeometry x="350" y="-95" width="110" height="70" as="geometry" />
        </mxCell>
        <mxCell id="bgF9OY12VIYj5gz-CZeS-61" style="edgeStyle=orthogonalEdgeStyle;rounded=0;orthogonalLoop=1;jettySize=auto;html=1;entryX=0.015;entryY=0.421;entryDx=0;entryDy=0;entryPerimeter=0;" edge="1" parent="1" source="bgF9OY12VIYj5gz-CZeS-1" target="bgF9OY12VIYj5gz-CZeS-60">
          <mxGeometry relative="1" as="geometry" />
        </mxCell>
        <mxCell id="bgF9OY12VIYj5gz-CZeS-67" style="edgeStyle=orthogonalEdgeStyle;rounded=0;orthogonalLoop=1;jettySize=auto;html=1;entryX=0;entryY=0.5;entryDx=0;entryDy=0;endArrow=none;endFill=0;" edge="1" parent="1" source="bgF9OY12VIYj5gz-CZeS-64" target="bgF9OY12VIYj5gz-CZeS-66">
          <mxGeometry relative="1" as="geometry" />
        </mxCell>
        <mxCell id="bgF9OY12VIYj5gz-CZeS-64" value="Hacker&amp;nbsp;" style="shape=umlActor;verticalLabelPosition=bottom;verticalAlign=top;html=1;outlineConnect=0;fillColor=#000000;" vertex="1" parent="1">
          <mxGeometry x="330" y="-310" width="30" height="60" as="geometry" />
        </mxCell>
        <mxCell id="bgF9OY12VIYj5gz-CZeS-68" style="edgeStyle=orthogonalEdgeStyle;rounded=0;orthogonalLoop=1;jettySize=auto;html=1;exitX=0.5;exitY=1;exitDx=0;exitDy=0;entryX=0.5;entryY=0;entryDx=0;entryDy=0;dashed=1;" edge="1" parent="1" source="bgF9OY12VIYj5gz-CZeS-66" target="bgF9OY12VIYj5gz-CZeS-60">
          <mxGeometry relative="1" as="geometry">
            <Array as="points">
              <mxPoint x="525" y="-160" />
              <mxPoint x="405" y="-160" />
            </Array>
          </mxGeometry>
        </mxCell>
        <mxCell id="bgF9OY12VIYj5gz-CZeS-69" value="&amp;lt;&amp;lt;Threatens&amp;gt;&amp;gt;" style="edgeLabel;html=1;align=center;verticalAlign=middle;resizable=0;points=[];" vertex="1" connectable="0" parent="bgF9OY12VIYj5gz-CZeS-68">
          <mxGeometry x="-0.6226" y="-1" relative="1" as="geometry">
            <mxPoint as="offset" />
          </mxGeometry>
        </mxCell>
        <mxCell id="bgF9OY12VIYj5gz-CZeS-66" value="&lt;font color=&quot;#ffffff&quot;&gt;Compromise the results&lt;/font&gt;" style="ellipse;whiteSpace=wrap;html=1;fillColor=#000000;" vertex="1" parent="1">
          <mxGeometry x="470" y="-310" width="110" height="60" as="geometry" />
        </mxCell>
        <mxCell id="bgF9OY12VIYj5gz-CZeS-70" style="edgeStyle=orthogonalEdgeStyle;rounded=0;orthogonalLoop=1;jettySize=auto;html=1;entryX=0.5;entryY=0;entryDx=0;entryDy=0;entryPerimeter=0;" edge="1" parent="1" source="bgF9OY12VIYj5gz-CZeS-17" target="bgF9OY12VIYj5gz-CZeS-6">
          <mxGeometry relative="1" as="geometry" />
        </mxCell>
      </root>
    </mxGraphModel>
  </diagram>
</mxfile>
